:FULLY-SPECIFIED
:FORCE-ALL-JOINTS-BE-3DOF
:DEGREES
374
root 6.18054 16.4621 -15.8678 8.13796 -16.5639 -4.93505
lfemur -40.299 22.3217 -10.8596
ltibia 74.3147 0 0
lfoot -11.8398 -2.51638 0
ltoes 13.1167 0 0
rfemur -29.475 -7.95553 30.413
rtibia 47.2747 0 0
rfoot -17.864 0.512907 0
rtoes 18.5304 0 0
lowerback 5.29708 1.31868 2.33944
upperback 2.64163 1.84705 0.891341
thorax -0.203773 0.934111 -0.504766
lowerneck -7.91977 -1.20621 2.83
upperneck -0.57264 -1.90255 2.26705
head 1.17316 -0.907954 0.162971
lclavicle -2.17269e-14 -1.58737e-14 0
lhumerus -41.6002 -22.2301 96.2058
lradius 57.4032 0 0
lwrist 20.9405 0 0
lhand -19.9764 3.68325 0
lfingers 7.12502 0 0
lthumb 6.36256 33.5674 0
rclavicle -2.17269e-14 -1.58737e-14 0
rhumerus -37.9578 11.217 -92.8669
rradius 64.041 0 0
rwrist 7.47064 0 0
rhand -10.6736 -20.7707 0
rfingers 7.12502 0 0
rthumb 15.3334 -770.155 0
375
root 6.13286 16.4532 -15.7327 7.9324 -17.1989 -4.82026
lfemur -39.9536 21.9637 -10.8487
ltibia 73.6042 0 0
lfoot -11.9189 -2.08543 0
ltoes 12.8385 0 0
rfemur -29.9506 -8.42535 30.2922
rtibia 48.3346 0 0
rfoot -17.2912 0.505981 0
rtoes 18.9365 0 0
lowerback 5.32399 1.41179 2.25244
upperback 2.62073 1.96495 0.802079
thorax -0.236344 0.992452 -0.557083
lowerneck -7.87163 -1.08827 2.96748
upperneck -0.456814 -1.75414 2.18259
head 1.20734 -0.832613 0.117805
lclavicle -2.16796e-14 -1.49719e-14 0
lhumerus -41.704 -22.0981 96.1526
lradius 57.2188 0 0
lwrist 20.8678 0 0
lhand -20.0068 3.61947 0
lfingers 7.12502 0 0
lthumb 6.33327 33.5045 0
rclavicle -2.16796e-14 -1.49719e-14 0
rhumerus -38.1576 11.1747 -92.8118
rradius 64.0887 0 0
rwrist 7.48488 0 0
rhand -10.9458 -20.6606 0
rfingers 7.12502 0 0
rthumb 15.0708 -770.059 0
376
root 6.08517 16.4443 -15.5976 7.72685 -17.8339 -4.70548
lfemur -39.6081 21.6058 -10.8379
ltibia 72.8937 0 0
lfoot -11.998 -1.65449 0
ltoes 12.5602 0 0
rfemur -30.4261 -8.89516 30.1714
rtibia 49.3946 0 0
rfoot -16.7183 0.499054 0
rtoes 19.3426 0 0
lowerback 5.3509 1.5049 2.16545
upperback 2.59983 2.08286 0.712817
thorax -0.268916 1.05079 -0.6094
lowerneck -7.82349 -0.970333 3.10495
upperneck -0.340989 -1.60574 2.09813
head 1.24153 -0.757271 0.0726398
lclavicle -2.16324e-14 -1.40701e-14 0
lhumerus -41.8079 -21.9661 96.0994
lradius 57.0344 0 0
lwrist 20.7951 0 0
lhand -20.0371 3.55569 0
lfingers 7.12502 0 0
lthumb 6.30399 33.4415 0
rclavicle -2.16324e-14 -1.40701e-14 0
rhumerus -38.3575 11.1324 -92.7567
rradius 64.1363 0 0
rwrist 7.49911 0 0
rhand -11.2181 -20.5505 0
rfingers 7.12502 0 0
rthumb 14.8083 -769.963 0
377
root 6.03748 16.4354 -15.4624 7.52129 -18.4689 -4.59069
lfemur -39.2627 21.2478 -10.8271
ltibia 72.1832 0 0
lfoot -12.0772 -1.22354 0
ltoes 12.2819 0 0
rfemur -30.9017 -9.36498 30.0506
rtibia 50.4545 0 0
rfoot -16.1455 0.492128 0
rtoes 19.7486 0 0
lowerback 5.37782 1.59801 2.07845
upperback 2.57893 2.20076 0.623555
thorax -0.301488 1.10914 -0.661717
lowerneck -7.77535 -0.852397 3.24243
upperneck -0.225164 -1.45733 2.01367
head 1.27571 -0.68193 0.027474
lclavicle -2.15851e-14 -1.31683e-14 0
lhumerus -41.9118 -21.834 96.0461
lradius 56.8501 0 0
lwrist 20.7223 0 0
lhand -20.0674 3.4919 0
lfingers 7.12502 0 0
lthumb 6.2747 33.3785 0
rclavicle -2.15851e-14 -1.31683e-14 0
rhumerus -38.5574 11.0901 -92.7017
rradius 64.1839 0 0
rwrist 7.51335 0 0
rhand -11.4903 -20.4404 0
rfingers 7.12502 0 0
rthumb 14.5458 -769.867 0
378
root 5.98979 16.4265 -15.3273 7.31573 -19.1039 -4.4759
lfemur -38.9173 20.8899 -10.8162
ltibia 71.4726 0 0
lfoot -12.1563 -0.792597 0
ltoes 12.0037 0 0
rfemur -31.3772 -9.83479 29.9298
rtibia 51.5145 0 0
rfoot -15.5727 0.485201 0
rtoes 20.1547 0 0
lowerback 5.40473 1.69112 1.99145
upperback 2.55803 2.31866 0.534292
thorax -0.334059 1.16748 -0.714034
lowerneck -7.72721 -0.734461 3.37991
upperneck -0.109339 -1.30893 1.92922
head 1.3099 -0.606588 -0.0176917
lclavicle -2.15378e-14 -1.22665e-14 0
lhumerus -42.0156 -21.702 95.9929
lradius 56.6657 0 0
lwrist 20.6496 0 0
lhand -20.0978 3.42812 0
lfingers 7.12502 0 0
lthumb 6.24542 33.3156 0
rclavicle -2.15378e-14 -1.22665e-14 0
rhumerus -38.7572 11.0478 -92.6466
rradius 64.2316 0 0
rwrist 7.52759 0 0
rhand -11.7625 -20.3303 0
rfingers 7.12502 0 0
rthumb 14.2832 -769.771 0
379
root 5.9421 16.4176 -15.1922 7.11017 -19.7389 -4.36112
lfemur -38.5719 20.5319 -10.8054
ltibia 70.7621 0 0
lfoot -12.2355 -0.361652 0
ltoes 11.7254 0 0
rfemur -31.8528 -10.3046 29.809
rtibia 52.5744 0 0
rfoot -14.9998 0.478275 0
rtoes 20.5608 0 0
lowerback 5.43164 1.78423 1.90446
upperback 2.53713 2.43656 0.44503
thorax -0.366631 1.22582 -0.766351
lowerneck -7.67907 -0.616525 3.51738
upperneck 0.0064861 -1.16052 1.84476
head 1.34408 -0.531247 -0.0628574
lclavicle -2.14906e-14 -1.13647e-14 0
lhumerus -42.1195 -21.5699 95.9396
lradius 56.4813 0 0
lwrist 20.5769 0 0
lhand -20.1281 3.36434 0
lfingers 7.12502 0 0
lthumb 6.21613 33.2526 0
rclavicle -2.14906e-14 -1.13647e-14 0
rhumerus -38.9571 11.0055 -92.5915
rradius 64.2792 0 0
rwrist 7.54183 0 0
rhand -12.0347 -20.2202 0
rfingers 7.12502 0 0
rthumb 14.0207 -769.675 0
380
root 5.89441 16.4087 -15.0571 6.90461 -20.3739 -4.24633
lfemur -38.2265 20.174 -10.7946
ltibia 70.0516 0 0
lfoot -12.3146 0.0692937 0
ltoes 11.4471 0 0
rfemur -32.3283 -10.7744 29.6882
rtibia 53.6344 0 0
rfoot -14.427 0.471349 0
rtoes 20.9669 0 0
lowerback 5.45855 1.87734 1.81746
upperback 2.51623 2.55447 0.355768
thorax -0.399202 1.28416 -0.818668
lowerneck -7.63093 -0.498589 3.65486
upperneck 0.122311 -1.01212 1.7603
head 1.37827 -0.455905 -0.108023
lclavicle -2.14433e-14 -1.04629e-14 0
lhumerus -42.2234 -21.4379 95.8864
lradius 56.2969 0 0
lwrist 20.5042 0 0
lhand -20.1584 3.30056 0
lfingers 7.12502 0 0
lthumb 6.18685 33.1896 0
rclavicle -2.14433e-14 -1.04629e-14 0
rhumerus -39.157 10.9633 -92.5364
rradius 64.3268 0 0
rwrist 7.55607 0 0
rhand -12.307 -20.1101 0
rfingers 7.12502 0 0
rthumb 13.7582 -769.579 0
381
root 5.84672 16.3999 -14.922 6.69905 -21.0089 -4.13155
lfemur -37.8811 19.816 -10.7838
ltibia 69.3411 0 0
lfoot -12.3938 0.500239 0
ltoes 11.1689 0 0
rfemur -32.8039 -11.2442 29.5673
rtibia 54.6943 0 0
rfoot -13.8541 0.464422 0
rtoes 21.3729 0 0
lowerback 5.48546 1.97045 1.73047
upperback 2.49532 2.67237 0.266506
thorax -0.431774 1.3425 -0.870986
lowerneck -7.58278 -0.380653 3.79234
upperneck 0.238136 -0.863714 1.67584
head 1.41245 -0.380564 -0.153189
lclavicle -2.1396e-14 -9.56105e-15 0
lhumerus -42.3273 -21.3059 95.8332
lradius 56.1125 0 0
lwrist 20.4314 0 0
lhand -20.1887 3.23678 0
lfingers 7.12502 0 0
lthumb 6.15756 33.1266 0
rclavicle -2.1396e-14 -9.56105e-15 0
rhumerus -39.3569 10.921 -92.4814
rradius 64.3745 0 0
rwrist 7.57031 0 0
rhand -12.5792 -19.9999 0
rfingers 7.12502 0 0
rthumb 13.4956 -769.483 0
382
root 5.79903 16.391 -14.7869 6.49349 -21.6439 -4.01676
lfemur -37.5357 19.458 -10.7729
ltibia 68.6306 0 0
lfoot -12.4729 0.931184 0
ltoes 10.8906 0 0
rfemur -33.2794 -11.7141 29.4465
rtibia 55.7543 0 0
rfoot -13.2813 0.457496 0
rtoes 21.779 0 0
lowerback 5.51237 2.06356 1.64347
upperback 2.47442 2.79027 0.177244
thorax -0.464345 1.40085 -0.923303
lowerneck -7.53464 -0.262717 3.92981
upperneck 0.353961 -0.715309 1.59138
head 1.44664 -0.305222 -0.198354
lclavicle -2.13488e-14 -8.65924e-15 0
lhumerus -42.4311 -21.1738 95.7799
lradius 55.9282 0 0
lwrist 20.3587 0 0
lhand -20.2191 3.17299 0
lfingers 7.12502 0 0
lthumb 6.12828 33.0637 0
rclavicle -2.13488e-14 -8.65924e-15 0
rhumerus -39.5567 10.8787 -92.4263
rradius 64.4221 0 0
rwrist 7.58455 0 0
rhand -12.8514 -19.8898 0
rfingers 7.12502 0 0
rthumb 13.2331 -769.387 0
383
root 5.75135 16.3821 -14.6518 6.28793 -22.2789 -3.90197
lfemur -37.1903 19.1001 -10.7621
ltibia 67.92 0 0
lfoot -12.552 1.36213 0
ltoes 10.6123 0 0
rfemur -33.755 -12.1839 29.3257
rtibia 56.8142 0 0
rfoot -12.7085 0.450569 0
rtoes 22.1851 0 0
lowerback 5.53928 2.15667 1.55648
upperback 2.45352 2.90817 0.0879815
thorax -0.496917 1.45919 -0.97562
lowerneck -7.4865 -0.144781 4.06729
upperneck 0.469787 -0.566903 1.50693
head 1.48082 -0.229881 -0.24352
lclavicle -2.13015e-14 -7.75744e-15 0
lhumerus -42.535 -21.0418 95.7267
lradius 55.7438 0 0
lwrist 20.286 0 0
lhand -20.2494 3.10921 0
lfingers 7.12502 0 0
lthumb 6.09899 33.0007 0
rclavicle -2.13015e-14 -7.75744e-15 0
rhumerus -39.7566 10.8364 -92.3712
rradius 64.4697 0 0
rwrist 7.59879 0 0
rhand -13.1236 -19.7797 0
rfingers 7.12502 0 0
rthumb 12.9706 -769.291 0
384
root 5.70366 16.3732 -14.5167 6.08237 -22.9139 -3.78719
lfemur -36.8449 18.7421 -10.7513
ltibia 67.2095 0 0
lfoot -12.6312 1.79308 0
ltoes 10.3341 0 0
rfemur -34.2306 -12.6537 29.2049
rtibia 57.8741 0 0
rfoot -12.1356 0.443643 0
rtoes 22.5912 0 0
lowerback 5.56619 2.24978 1.46948
upperback 2.43262 3.02608 -0.00128073
thorax -0.529488 1.51753 -1.02794
lowerneck -7.43836 -0.0268446 4.20477
upperneck 0.585612 -0.418498 1.42247
head 1.515 -0.15454 -0.288686
lclavicle -2.12542e-14 -6.85563e-15 0
lhumerus -42.6389 -20.9098 95.6735
lradius 55.5594 0 0
lwrist 20.2133 0 0
lhand -20.2797 3.04543 0
lfingers 7.12502 0 0
lthumb 6.06971 32.9377 0
rclavicle -2.12542e-14 -6.85563e-15 0
rhumerus -39.9565 10.7941 -92.3161
rradius 64.5174 0 0
rwrist 7.61303 0 0
rhand -13.3959 -19.6696 0
rfingers 7.12502 0 0
rthumb 12.708 -769.195 0
385
root 5.65597 16.3643 -14.3816 5.87681 -23.5489 -3.6724
lfemur -36.4995 18.3842 -10.7404
ltibia 66.499 0 0
lfoot -12.7103 2.22402 0
ltoes 10.0558 0 0
rfemur -34.7061 -13.1235 29.0841
rtibia 58.9341 0 0
rfoot -11.5628 0.436716 0
rtoes 22.9972 0 0
lowerback 5.5931 2.34289 1.38248
upperback 2.41172 3.14398 -0.0905429
thorax -0.56206 1.57587 -1.08025
lowerneck -7.39022 0.0910915 4.34225
upperneck 0.701437 -0.270093 1.33801
head 1.54919 -0.079198 -0.333852
lclavicle -2.12069e-14 -5.95383e-15 0
lhumerus -42.7427 -20.7777 95.6202
lradius 55.375 0 0
lwrist 20.1405 0 0
lhand -20.3101 2.98165 0
lfingers 7.12502 0 0
lthumb 6.04042 32.8748 0
rclavicle -2.12069e-14 -5.95383e-15 0
rhumerus -40.1563 10.7518 -92.2611
rradius 64.565 0 0
rwrist 7.62727 0 0
rhand -13.6681 -19.5595 0
rfingers 7.12502 0 0
rthumb 12.4455 -769.099 0
386
root 5.60828 16.3554 -14.2465 5.67125 -24.1839 -3.55762
lfemur -36.154 18.0262 -10.7296
ltibia 65.7885 0 0
lfoot -12.7895 2.65497 0
ltoes 9.77754 0 0
rfemur -35.1817 -13.5933 28.9633
rtibia 59.994 0 0
rfoot -10.9899 0.42979 0
rtoes 23.4033 0 0
lowerback 5.62001 2.436 1.29549
upperback 2.39082 3.26188 -0.179805
thorax -0.594631 1.63421 -1.13257
lowerneck -7.34208 0.209028 4.47972
upperneck 0.817262 -0.121688 1.25355
head 1.58337 -0.00385659 -0.379017
lclavicle -2.11597e-14 -5.05202e-15 0
lhumerus -42.8466 -20.6457 95.567
lradius 55.1907 0 0
lwrist 20.0678 0 0
lhand -20.3404 2.91786 0
lfingers 7.12502 0 0
lthumb 6.01114 32.8118 0
rclavicle -2.11597e-14 -5.05202e-15 0
rhumerus -40.3562 10.7095 -92.206
rradius 64.6126 0 0
rwrist 7.6415 0 0
rhand -13.9403 -19.4494 0
rfingers 7.12502 0 0
rthumb 12.183 -769.003 0
